<?xml version="1.0" encoding="utf-8"?>
<!-- Generator: Adobe Illustrator 19.1.0, SVG Export Plug-In . SVG Version: 6.00 Build 0)  -->
<svg version="1.1" id="Layer_1" xmlns="http://www.w3.org/2000/svg" xmlns:xlink="http://www.w3.org/1999/xlink" x="0px" y="0px"
	 viewBox="-317 212.8 363.3 76.2" style="enable-background:new -317 212.8 363.3 76.2;" xml:space="preserve">
<style type="text/css">
	.st0{enable-background:new    ;}
</style>
<g class="st0">
	<path d="M-276.8,228.6c-0.1,0.6-0.4,1.3-0.8,1.9c-0.4,0.7-0.9,1.3-1.4,1.9c-0.5,0.6-1.1,1.1-1.7,1.5c-0.6,0.5-1.2,0.8-1.9,1v27.1
		c0.9-0.7,2.3-2.3,4.1-4.8c0,7.7-3.9,13-11.8,16c-2.4,0.9-4.7,1.4-6.7,1.4c-3.2,0-5.8-0.4-7.8-1.2c-3.5-1.4-6.2-3.5-8.2-6.3
		c-2-2.8-3-6.1-3-9.9V257l0.1-0.1c0-5.1,1.6-9.9,4.9-14.3c2.4-3.5,5.4-5.4,8.9-5.8c-4.4,4.9-6.6,9.6-6.6,14c0,2.3,0.3,4.4,0.9,6.3
		c0.6,1.9,1.6,3.6,2.8,5.1v-0.1c2.7,3.3,6.2,5,10.5,5h0.1l0.1-0.1c3.4,0,6.4-0.9,8.9-2.7v-28.2h-0.1c-0.4,0.1-0.7,0.2-0.9,0.2
		c-0.4,0.2-1.6,0.3-3.5,0.3l-0.1,0.1h-0.2c-1,0-1.9,0-2.7-0.1c-0.8,0-1.6-0.1-2.3-0.2c-0.2,0-0.5-0.1-0.9-0.2
		c-0.4-0.1-0.9-0.2-1.6-0.3c-0.5-0.1-1.1-0.2-1.8-0.3c-0.7-0.1-1.4-0.3-2.3-0.4c-2.5-0.5-4.7-0.7-6.6-0.7h-0.4
		c-0.2,0-0.7,0.1-1.7,0.1c-2.2,0.2-4,1.3-5.4,3.3V237c0-1.1,0.4-2.4,1.3-3.8c2.4-3.8,6.2-5.8,11.3-5.8l0.4-0.1
		c1.6,0.1,4.2,0.4,7.8,0.9l4,0.7c0.2,0.1,0.6,0.2,1,0.3c0.5,0.1,1,0.2,1.8,0.3l1.5,0.1l1.5,0.2h1.8l0.1-0.1h1l0.1,0.1
		c2,0,3.6-0.5,5-1.4L-276.8,228.6z M-293.3,262.2c-1.8,1.6-3.6,2.4-5.6,2.4h-0.4v-0.1h-0.6l0.5-0.6v-0.2l0.1-0.1
		c0-0.1,0-0.2,0.1-0.2l0.2-0.2c0-0.2,0.1-0.4,0.4-0.6v-0.2l0.1-0.1v-0.1l0.1-0.1v-17.9l-2.1,1v-3l8.6-5h1.5v19.5
		C-290.5,258.7-291.4,260.5-293.3,262.2z"/>
	<path d="M-264.9,274.7c-0.8,0-1.5-0.2-2.3-0.5c-0.8-0.3-1.5-0.7-2.2-1.3c-1.4-1.2-2.2-2.5-2.2-4v-18.1c-0.7,0-1.3-0.5-1.7-1.3
		l-1,0.6l-1-1.4l0.2-0.4l0.1,0.1l0.1-0.1l0.1-0.1c0.5-0.4,1-0.9,1.6-1.5s1.3-1.2,2.3-2.1c0.5-0.3,1.2-0.9,1.9-1.6
		c0.3-0.3,0.6-0.5,0.7-0.6v-0.9c2,2.8,3.7,4.2,5.2,4.2c0.3,0,1.1-0.3,2.3-1v0.9c-0.1,0.3-0.1,0.6-0.1,1c-0.4,1.1-0.9,2-1.5,2.7
		c-0.6,0.7-1.3,1.2-1.9,1.5v15.3c0,0.3,0.1,0.7,0.4,1.2c0.4,0.9,1.4,1.4,3,1.4c0.5,0,1.2-0.1,1.9-0.4l0.3,0.5L-264.9,274.7z
		 M-262,237.8c-0.3,0.6-0.7,1.1-1.2,1.6c-0.5,0.5-1.1,0.8-1.7,1.1s-1.3,0.4-2,0.4h-0.6v-0.1h-0.7l-0.1-0.1c-1.8,0-3-0.7-3.4-2.2
		l-1.2,0.6l-0.9-1.6c0.4-0.4,0.8-0.7,1.2-0.9c0.4-0.2,0.8-0.4,1.2-0.6l-0.1,0.1c0.1-0.1,0.3-0.3,0.6-0.5c0.3-0.2,0.5-0.4,0.8-0.6
		c0.3-0.2,0.7-0.5,1.2-0.9c0.5-0.3,0.9-0.7,1.5-1.1c1.2,1.8,2.5,2.7,3.9,2.7c0.2-0.1,0.4-0.2,0.6-0.2c0.2,0,0.4-0.1,0.6-0.2h-0.1
		l0.1-0.1h0.1l0.1-0.1h0.1l0.1-0.1h0.5v0.6C-261.5,236.5-261.6,237.2-262,237.8z"/>
	<path d="M-230.1,274.8c-0.6,0.8-2.1,2-4.3,3.7c-0.1,0-0.2,0.1-0.3,0.2c-1.2,0.8-2.1,1.5-2.8,2c-0.7,0.5-1.2,0.9-1.5,1.3
		c-0.5,0.5-1.1,1-1.8,1.7c-0.6,0.6-1.3,1.3-2,1.9c-0.3-0.1-0.5-0.3-0.6-0.4c-0.1-0.1-0.2-0.2-0.5-0.4h0.1c-0.2-0.1-0.4-0.3-0.6-0.5
		c-0.2-0.2-0.5-0.4-0.7-0.6h0.1c-0.1-0.1-0.2-0.2-0.3-0.2c-0.1,0-0.2-0.1-0.5-0.3c-1.1-0.8-2.6-1.2-4.5-1.2c-1.7,0-3.7,0.6-5.8,1.9
		c0.9-2.5,2.4-4.4,4.7-5.7c2-1.2,4.2-1.7,6.5-1.7c2.8,0,4.9,0.5,6.4,1.6c1.7-1.6,2.6-2.8,2.6-3.7c0-0.6-0.5-1.4-1.6-2.4
		c-1-0.8-1.6-1.9-1.9-3.2c-3,1.5-5.5,3.6-7.6,6.1c-2.3-2.9-4.5-4.4-6.8-4.4c-0.2,0-0.4,0-0.4,0.1c-0.4,0-1.2,0.2-2.4,0.5
		c-0.1,0-0.4,0.1-0.8,0.1c0-0.8,0.4-1.7,1.2-2.7c0.4-0.5,0.7-0.9,1-1.2s0.6-0.5,0.8-0.6v-18.4c0-0.2-0.1-0.5-0.1-0.6
		c0-0.1-0.1-0.2-0.1-0.3c0-0.1-0.1-0.2-0.1-0.4c-0.2-0.6-0.4-1-0.5-1.2v-0.8c0.7,0.5,1.6,0.7,2.7,0.7l0.2,0.1h0.4
		c3.3,0,6.8-0.9,10.5-2.7c0.3-0.1,0.8-0.4,1.4-0.7c0.7-0.3,1.4-0.8,2.3-1.3c1.7,2.8,3.6,4.2,5.9,4.2h0.2c0.4-0.2,0.9-0.4,1.4-0.7
		c0.6-0.3,1-0.5,1.4-0.8c-0.1,1.3-0.4,2.4-1,3.3c-0.6,0.9-1.3,1.7-2.3,2.3v14.8c0,1.3,0.6,2.8,1.7,4.2l0.1,0.1h-0.1l0.4,0.3l0.1,0.1
		h-0.1c0.8,1.1,1.2,2,1.2,2.8C-228.9,272.8-229.3,273.8-230.1,274.8z M-239.7,265.8v-15.6c-1.3,0-2.4-0.7-3.5-2.1
		c-0.1-0.1-0.2-0.3-0.3-0.5c-0.1-0.2-0.3-0.4-0.5-0.7v0.1h-0.1V247c-0.6,0.3-1.1,0.4-1.5,0.4c-0.2,0.1-0.4,0.2-0.6,0.3
		c-0.2,0.1-0.5,0.1-0.8,0.1v17.6c0.3,0.1,0.6,0.1,0.9,0.1c1.3,0.2,2.5,0.9,3.5,1.9l0.1-0.1l0.3-0.1l-0.1,0.1c0.2-0.1,0.5-0.3,1-0.6
		c0.5-0.3,0.9-0.6,1.3-0.8C-239.8,265.9-239.7,265.9-239.7,265.8z"/>
	<path d="M-204.6,253.1c-0.6,0.3-1.7,0.9-3.4,1.9c-1.7,1-4,2.3-6.9,4.1c-0.4,0.2-0.9,0.6-1.4,0.9v5.4c1.5,0.2,2.9,0.6,4.1,0.9
		c1.3,0.4,2.5,0.8,3.6,1.4l1.7-1.8l1.8,1.7l-6.6,7.2l-0.7-0.4c-1-0.5-2-1-3-1.5c-1-0.5-2.1-0.8-3.3-1c-2.1-0.4-3.9-0.6-5.5-0.6
		c-0.6,0-1.2,0-1.7,0.1c-0.6,0.1-1.2,0.2-1.7,0.3c0.1-0.2,0.2-0.4,0.3-0.6c0.1-0.2,0.2-0.3,0.3-0.4v0.1c0.3-0.5,0.6-1,0.8-1.3
		c0.2-0.3,0.3-0.5,0.4-0.6c0.3-0.4,1-1,1.9-1.7v-17.4c0-0.7-0.4-1.9-1.2-3.6v-1l0.6,0.6h0.4l0.1,0.1h0.2l0.2,0.1h0.3
		c3.8,0,8.1-1.6,12.8-4.8c0.2,0.9,0.6,1.8,0.9,2.8c0.4,1,0.9,2.1,1.6,3.4c0.6,1.1,1.2,2.1,1.8,3.1c0.6,0.9,1.1,1.7,1.5,2.4
		L-204.6,253.1z M-215.1,249.4c-0.3-0.7-0.6-1.3-0.8-2l-0.6,0.1v9.2l3.9-2.5c-0.2-0.3-0.4-0.7-0.7-1.1c-0.3-0.5-0.6-1-0.9-1.8
		C-214.5,250.7-214.8,250.1-215.1,249.4z"/>
	<path d="M-181.2,250.3c-1.1,1.2-2.5,1.8-4.2,1.8c-1.4,0-2.7-0.6-4-1.9l-1.9,2v13c0.1,0,0.2,0.1,0.4,0.1c0.2,0,0.4,0.1,0.6,0.1h-0.1
		c1,0.1,1.9,0.6,3,1.7l1.3-1.3l1.6,1.7l-7.4,7.2c-2.7-2.5-5.2-3.8-7.6-3.8c-0.5,0-0.9,0.1-1.3,0.2c-0.4,0.1-0.7,0.2-1.1,0.3
		l-0.9,0.4c0-1.5,0.7-3,2.2-4.5c0.3-0.3,0.5-0.5,0.8-0.6c0.2-0.1,0.4-0.3,0.5-0.4l-0.1,0.1l0.2-0.2h0.2l0.1-0.1v-14.9
		c-0.3-0.5-0.7-0.9-1.1-1.2c-0.4-0.3-0.9-0.6-1.4-0.8c-0.1,0-0.4-0.1-0.6-0.2c-0.1,0-0.3-0.1-0.6-0.2c-0.3-0.1-0.5-0.1-0.7-0.2
		c3-1.7,5.3-4.2,7-7.5c2.5,1.3,4.2,3.6,5,6.9l0.6-0.9c0.2-0.2,0.5-0.5,0.7-0.8c0.2-0.3,0.5-0.6,0.8-0.9c0.9-0.9,1.9-2.2,3-4v-0.2
		l0.6-0.1c0.9,2.7,2.1,4.1,3.8,4.1c0.6,0,1.3-0.4,2.3-1.3v1.7C-179.6,247.6-180.1,249.1-181.2,250.3z"/>
	<path d="M-131.4,228.9c-1,1.4-2.2,2.7-3.7,3.7c-1.5,1-3,1.6-4.5,1.6c-0.1,0-0.4,0.1-1,0.1l-0.1,0.1h-0.2c-0.9,0-2.2-0.3-4.1-1
		c-1.8-0.7-3-1-3.6-1l-0.1,0.1h-0.5c0,0-0.2,0.1-0.4,0.1c-0.5,0-1,0.3-1.4,0.6c-0.4,0.4-0.9,0.9-1.4,1.8v-1l-0.1-0.1v-0.3l-0.1-0.1
		V233c0-2,0.8-3.6,2.3-4.8c1.5-1.2,3.3-1.9,5.4-1.9c2.1,0,4,0.4,5.8,1.3c0.2,0.1,0.3,0.1,0.4,0.1h-0.1c0.2,0.1,0.4,0.2,0.5,0.2
		c0.1,0,0.2,0.1,0.3,0.1h-0.1c0.2,0.1,0.4,0.2,0.6,0.2c0.2,0,0.7,0.2,1.5,0.5h0.1c0.3,0,0.6,0.1,0.8,0.1c0.2,0,0.5,0,0.6,0
		c1.1,0,1.8-0.1,2.2-0.4c0,0,0.1-0.1,0.3-0.1c0,0,0.1,0,0.1,0c0,0,0.1,0,0.1,0L-131.4,228.9z M-106.2,268.7
		c-0.6,0.4-1.4,0.9-2.3,1.5c-0.9,0.6-1.9,1.4-3,2.2c-0.7,0.5-1.6,1.4-2.7,2.8l-0.4-0.4l-0.1-0.1l-0.1-0.1l-0.1-0.1l-0.2-0.2
		l-0.1-0.1c-2.6-2.6-4.8-4.4-6.6-5.3l3.1-3.2v-13.3h-8.7v13.3l0.6-0.7l2,1.7l-8.3,8.2c-3.4-2.2-6.9-3.2-10.4-3.2
		c-3.2,0-6,0.9-8.5,2.7c0.5-1.7,1.4-3.2,2.6-4.5c1.2-1.2,2.6-2.3,4.3-3.2c1.5-0.7,3-1.2,4.6-1.5c1.6-0.4,3.2-0.5,4.9-0.5
		c1.9,0,3.8,0.3,5.6,0.9v-35.1c-0.8-0.3-1.2-1-1.2-2.2c0-1.8,0.9-2.7,2.6-2.7c0.7,0,1.3,0.3,1.8,0.8s0.8,1.2,0.8,1.8
		c0,1.2-0.5,2-1.4,2.4v14.5h8.7v-10.9c-0.1,0-0.2,0-0.3-0.1h0.1c-0.1-0.1-0.3-0.2-0.6-0.4c-0.2-0.1-0.5-0.3-0.7-0.6h0.1
		c-0.1,0-0.2-0.2-0.4-0.4l-1.2,0.7l-1.2-1.9l8.1-5.5c2.5,3,4.8,4.5,6.7,4.5h0.1c0.1,0,0.4-0.2,1-0.4c0.2-0.1,0.5-0.1,0.9-0.1
		c-0.8,1.4-1.6,2.6-2.6,3.4c-0.2,0.1-0.4,0.2-0.6,0.3c-0.2,0.1-0.4,0.3-0.6,0.5h0.1l-0.2,0.2l-0.5,0.1v31.1l1.7,1.8l1.4-0.9l1.2,1.8
		L-106.2,268.7z M-131.4,232.9v0.1c-0.5,0.5-0.7,1.7-0.7,3.6v20.2c0,0.8-0.4,1.8-1.1,3.1c-0.4,0.7-0.9,1.3-1.5,1.9
		c-0.6,0.6-1.3,1.1-2,1.5c-0.7,0.4-1.5,0.8-2.3,1c-0.8,0.2-1.6,0.4-2.3,0.4h-0.4l-0.1-0.1h-0.7l0.7-0.7c0.1,0,0.3-0.2,0.5-0.4l0.5-1
		v0.1c0.3-0.6,0.6-1,0.6-1.2c0-0.1,0-0.2,0.1-0.3v-9h-2.4l-0.7,0.3c0,0-0.1,0-0.1,0c0,0-0.1,0-0.1,0c-0.6,0.4-0.9,1.2-0.9,2.2
		l0.1,0.1v1c-0.4-0.1-0.8-0.4-1.1-0.7c-0.4-0.3-0.7-0.7-1-1c-0.3-0.4-0.6-0.8-0.8-1.2c-0.2-0.4-0.3-0.7-0.3-1.1
		c-0.1-0.3-0.1-0.7-0.1-1.2c0-0.7,0.1-1.3,0.4-2c0.3-0.7,0.6-1.3,1.1-1.8c0.5-0.6,1-1,1.6-1.3s1.2-0.5,1.9-0.5l2.7-0.1v-6.1
		c0.8-2,2.3-3.6,4.6-5c1.5-1,3-1.4,4.6-1.4L-131.4,232.9z"/>
	<path d="M-94.2,274.7c-0.8,0-1.5-0.2-2.3-0.5c-0.8-0.3-1.5-0.7-2.2-1.3c-1.4-1.2-2.2-2.5-2.2-4v-18.1c-0.7,0-1.3-0.5-1.7-1.3
		l-1,0.6l-1-1.4l0.2-0.4l0.1,0.1l0.1-0.1l0.1-0.1c0.5-0.4,1-0.9,1.6-1.5s1.3-1.2,2.3-2.1c0.5-0.3,1.2-0.9,1.9-1.6
		c0.3-0.3,0.6-0.5,0.7-0.6v-0.9c2,2.8,3.7,4.2,5.2,4.2c0.3,0,1.1-0.3,2.3-1v0.9c-0.1,0.3-0.1,0.6-0.1,1c-0.4,1.1-0.9,2-1.5,2.7
		c-0.6,0.7-1.3,1.2-1.9,1.5v15.3c0,0.3,0.1,0.7,0.4,1.2c0.4,0.9,1.4,1.4,3,1.4c0.5,0,1.2-0.1,1.9-0.4l0.3,0.5L-94.2,274.7z
		 M-91.2,237.8c-0.3,0.6-0.7,1.1-1.2,1.6c-0.5,0.5-1.1,0.8-1.7,1.1c-0.6,0.3-1.3,0.4-2,0.4h-0.6v-0.1h-0.7l-0.1-0.1
		c-1.8,0-3-0.7-3.4-2.2l-1.2,0.6l-0.9-1.6c0.4-0.4,0.8-0.7,1.2-0.9c0.4-0.2,0.8-0.4,1.2-0.6l-0.1,0.1c0.1-0.1,0.3-0.3,0.6-0.5
		c0.3-0.2,0.5-0.4,0.8-0.6c0.3-0.2,0.7-0.5,1.2-0.9c0.5-0.3,0.9-0.7,1.5-1.1c1.2,1.8,2.5,2.7,3.9,2.7c0.2-0.1,0.4-0.2,0.6-0.2
		c0.2,0,0.4-0.1,0.6-0.2h-0.1l0.1-0.1h0.1l0.1-0.1h0.1l0.1-0.1h0.5v0.6C-90.8,236.5-90.9,237.2-91.2,237.8z"/>
	<path d="M-72.1,255.2c-1.3,1.9-1.9,3.6-1.9,5.3v0.5c0,0.1,0.1,0.2,0.1,0.4h0.1v0.2l-0.1-0.2v0.5c-0.3,0-0.5-0.1-0.6-0.1
		c-0.1,0-0.5,0-1-0.1h0.1c-1.2-0.1-2.5-0.2-4-0.2h-5.2c-0.3,0-0.6,0.1-0.9,0.1c-0.2,0-0.3,0-0.4,0h-0.8c1.3-2.6,1.9-4.5,1.9-5.8
		c0-0.3,0.1-0.5,0.1-0.5c0,0,0-0.1,0.1-0.2l0.6,0.1l-0.1-0.1c0.5,0.1,1.2,0.1,2.3,0.1h4.8c0.4,0,1-0.1,1.8-0.1
		c0.8,0,1.9-0.1,3.2-0.2L-72.1,255.2z"/>
	<path d="M-54.7,236.4l0.5,0.1c-0.6,1.7-0.9,2.7-0.9,2.8l-0.1,20.2v0.1c0,0.7-0.4,1.7-1.2,2.9c-2.1,3.3-4.8,5.1-8.3,5.5
		c1.2-1.9,1.7-3.7,1.7-5.5v-7.3c-0.1-0.1-0.3-0.2-0.5-0.3c-0.2-0.1-0.4-0.2-0.7-0.4h-0.2c-0.5,0-1,0.2-1.4,0.5
		c-0.4,0.3-0.7,0.8-0.7,1.3l0.1,0.1v0.5h-0.4l-0.1,0.1h-0.3c-0.8,0-1.5-0.4-2.2-1.1c-0.6-0.7-1-1.5-1-2.3c0-0.1-0.1-0.4-0.1-0.8
		c0-2.6,1.4-4.5,4.3-5.6c0.5-0.1,1-0.2,1.5-0.3c0.5-0.1,1.1-0.2,1.7-0.3c0-1.1,0-2,0-2.7c0-0.7,0-1.1,0.1-1.4
		c0.2-1.3,1.3-2.7,3.3-4.1c1.9-1.5,3.6-2.2,5-2.2L-54.7,236.4z M-48.4,229.3c-0.2,2-1.4,3.7-3.5,5c-1.8,1.3-3.7,1.9-5.8,1.9
		c-1.2,0-2.5-0.3-4-0.9c-0.3,0-0.5,0-0.6-0.1c-0.2-0.1-0.4-0.2-0.5-0.2c-0.2,0-0.3,0-0.4-0.1c-0.3-0.1-0.6-0.2-1.1-0.3
		c-0.4-0.1-0.7-0.1-0.9-0.1l-0.1,0.1c-0.5,0-0.9,0.1-1.1,0.2c-0.3,0-0.6,0.2-0.9,0.5c-0.2,0-0.5,0.2-0.8,0.5c-0.4,0.3-0.8,0.6-1.3,1
		v-0.7c0-2.7,0.7-4.9,2.2-6.5c1.5-1.7,3.5-2.5,6.1-2.5c0.8,0,1.7,0.1,2.6,0.3c0.9,0.2,2,0.5,3.1,0.9c2.2,0.8,3.8,1.2,4.8,1.2
		c0.1,0,0.3,0,0.5-0.1c0.2,0,0.4-0.1,0.7-0.2c0.1-0.1,0.3-0.2,0.5-0.3L-48.4,229.3z M-34.8,274.8c-5.3-2.3-10.8-3.4-16.3-3.4
		c-4.8,0-8.9,0.8-12.5,2.4c-0.3,0.1-0.7,0.3-1.2,0.5c-0.5,0.3-0.9,0.5-1.5,0.8c1.1-2,2.4-3.7,4.1-5.2c1.7-1.4,3.7-2.6,6.2-3.6
		c4.2-1.7,8.4-2.5,12.8-2.5c2.9,0,5.4,0.4,7.6,1.1v-13.3c-0.8-0.3-1.2-1-1.2-2.2c0-0.7,0.3-1.3,0.8-1.8c0.5-0.6,1.1-0.8,1.8-0.8
		c0.7,0,1.3,0.3,1.8,0.8c0.5,0.6,0.8,1.2,0.8,1.8c0,1.2-0.4,1.9-1.3,2.3v13.9c0.1,0.1,0.4,0.2,0.8,0.3l0.3,0.2h-0.1
		c0.2,0.1,0.3,0.2,0.4,0.2v-0.1l0.1,0.1l0.1,0.1l0.3,0.1l1-1.2l2,1.6L-34.8,274.8z M-35.3,238.1l-1.9-1.7l1.2-1.4
		c-0.1-0.1-0.2-0.2-0.3-0.2c-0.1,0-0.1-0.1-0.2-0.2l-0.4-0.4c-0.1-0.1-0.3-0.2-0.5-0.3c-0.2-0.1-0.5-0.3-0.9-0.7
		c-0.3-0.1-0.6-0.3-0.9-0.5c-0.3-0.2-0.7-0.5-1.1-0.8h-0.2l-0.1-0.1h-0.4l-0.1-0.1c-1.6,0-2.7,0.5-3.2,1.4c-0.5,0.6-0.7,1.1-0.7,1.4
		v21.9c0,0.7-0.2,1.4-0.5,2.1c-0.3,0.7-0.7,1.4-1.2,2.1c-0.5,0.6-1.1,1.2-1.7,1.8c-0.6,0.5-1.3,0.9-1.9,1.2v-0.1
		c-0.2,0.2-0.5,0.3-0.9,0.4c-0.3,0.1-0.8,0.2-1.4,0.5h0.1c-0.1,0-0.2,0.1-0.3,0.1c0,0-0.1,0-0.1,0.1c-0.1,0-0.2,0-0.3,0
		c-0.1,0-0.2,0-0.3,0c-0.1,0-0.3,0.1-0.6,0.1h-1.1c0.7-0.7,1.2-1.4,1.6-2.1c0.4-0.7,0.6-1.5,0.7-2.4c0-0.1,0-0.2,0-0.4
		c0-0.2,0-0.4,0.1-0.6c0-0.1,0-0.2,0-0.2c0,0,0-0.1,0-0.2v-20c0-2.6,2.1-5.2,6.3-7.9c3.8-2.5,7.1-3.7,9.9-3.7h0.3
		c0.8,0,2.4,0.5,4.7,1.4c1.4,0.7,2.4,1.5,3,2.4L-35.3,238.1z"/>
	<path d="M-16.5,274.7c-0.8,0-1.5-0.2-2.3-0.5c-0.8-0.3-1.5-0.7-2.2-1.3c-1.4-1.2-2.2-2.5-2.2-4v-18.1c-0.7,0-1.3-0.5-1.7-1.3
		l-1,0.6l-1-1.4l0.2-0.4l0.1,0.1l0.1-0.1l0.1-0.1c0.5-0.4,1-0.9,1.6-1.5s1.3-1.2,2.3-2.1c0.5-0.3,1.2-0.9,1.9-1.6
		c0.3-0.3,0.6-0.5,0.7-0.6v-0.9c2,2.8,3.7,4.2,5.2,4.2c0.3,0,1.1-0.3,2.3-1v0.9c-0.1,0.3-0.1,0.6-0.1,1c-0.4,1.1-0.9,2-1.5,2.7
		c-0.6,0.7-1.3,1.2-1.9,1.5v15.3c0,0.3,0.1,0.7,0.4,1.2c0.4,0.9,1.4,1.4,3,1.4c0.5,0,1.2-0.1,1.9-0.4l0.3,0.5L-16.5,274.7z
		 M-13.6,237.8c-0.3,0.6-0.7,1.1-1.2,1.6c-0.5,0.5-1.1,0.8-1.7,1.1c-0.6,0.3-1.3,0.4-2,0.4h-0.6v-0.1h-0.7l-0.1-0.1
		c-1.8,0-3-0.7-3.4-2.2l-1.2,0.6l-0.9-1.6c0.4-0.4,0.8-0.7,1.2-0.9c0.4-0.2,0.8-0.4,1.2-0.6l-0.1,0.1c0.1-0.1,0.3-0.3,0.6-0.5
		c0.3-0.2,0.5-0.4,0.8-0.6c0.3-0.2,0.7-0.5,1.2-0.9c0.5-0.3,0.9-0.7,1.5-1.1c1.2,1.8,2.5,2.7,3.9,2.7c0.2-0.1,0.4-0.2,0.6-0.2
		c0.2,0,0.4-0.1,0.6-0.2H-14l0.1-0.1h0.1l0.1-0.1h0.1l0.1-0.1h0.5v0.6C-13.1,236.5-13.3,237.2-13.6,237.8z"/>
	<path d="M15.6,274.9c-0.7,0-1.3-0.2-2-0.5c-0.7-0.3-1.3-0.7-1.9-1.2c-1.2-0.9-1.7-2-1.7-3.4V251c-0.2,0-0.3,0-0.4-0.1H9.4l-0.1-0.1
		L9,250.7h0.1c-0.8-0.2-1.4-0.5-1.9-0.8c-0.5-0.3-0.9-0.8-1.3-1.3L3,251v15.1c0.6,0.2,1.1,0.5,1.6,0.7c0.5,0.2,0.9,0.5,1.2,0.7
		c0.5,0.3,1,0.7,1.4,1.1c0.4,0.4,0.8,0.8,1.1,1.3l-6.7,4.8c-2.6-2.4-5.2-3.7-7.9-3.7h-0.2l-0.1,0.1H-7l-0.1,0.1h-0.3l-0.1,0.1h-0.7
		c0.4-1.9,1.5-3.4,3.4-4.5v-16.2c-0.9-1.4-2.1-2.2-3.6-2.2l-0.1-0.1h-0.4v-0.5l7.3-7.3c0.8,0.7,1.4,1.3,2,1.8s1,1.1,1.3,1.6
		c0.8,1.2,1.2,2.5,1.2,3.8l8.5-7.1c2,2.8,3.6,4.2,4.7,4.2c0.5,0,1.8-0.4,3.7-1.2v1l-0.1,0.1v0.7l-0.1,0.1c0,1.2-0.6,2.4-1.9,3.7
		v16.8c0,1,0.7,1.4,2.2,1.4h0.3l0.1-0.1h0.6l0.1-0.1h0.9L15.6,274.9z"/>
	<path d="M45.7,253.1c-0.6,0.3-1.7,0.9-3.4,1.9c-1.7,1-4,2.3-6.9,4.1c-0.4,0.2-0.9,0.6-1.4,0.9v5.4c1.5,0.2,2.9,0.6,4.1,0.9
		c1.3,0.4,2.5,0.8,3.6,1.4l1.7-1.8l1.8,1.7l-6.6,7.2l-0.7-0.4c-1-0.5-2-1-3-1.5c-1-0.5-2.1-0.8-3.3-1c-2.1-0.4-3.9-0.6-5.5-0.6
		c-0.6,0-1.2,0-1.7,0.1c-0.6,0.1-1.2,0.2-1.7,0.3c0.1-0.2,0.2-0.4,0.3-0.6c0.1-0.2,0.2-0.3,0.3-0.4v0.1c0.3-0.5,0.6-1,0.8-1.3
		c0.2-0.3,0.3-0.5,0.4-0.6c0.3-0.4,1-1,1.9-1.7v-17.4c0-0.7-0.4-1.9-1.2-3.6v-1l0.6,0.6h0.4l0.1,0.1h0.2l0.2,0.1h0.3
		c3.8,0,8.1-1.6,12.8-4.8c0.2,0.9,0.6,1.8,0.9,2.8c0.4,1,0.9,2.1,1.6,3.4c0.6,1.1,1.2,2.1,1.8,3.1c0.6,0.9,1.1,1.7,1.5,2.4
		L45.7,253.1z M35.3,249.4c-0.3-0.7-0.6-1.3-0.8-2l-0.6,0.1v9.2l3.9-2.5c-0.2-0.3-0.4-0.7-0.7-1.1c-0.3-0.5-0.6-1-0.9-1.8
		C35.9,250.7,35.6,250.1,35.3,249.4z"/>
</g>
</svg>
